<?xml version="1.0" encoding="UTF-8"?>
<!DOCTYPE svg PUBLIC "-//W3C//DTD SVG 1.1//EN" "http://www.w3.org/Graphics/SVG/1.1/DTD/svg11.dtd">
<svg xmlns="http://www.w3.org/2000/svg" version="1.1" width="900px" height="600px" style="shape-rendering:geometricPrecision; text-rendering:geometricPrecision; image-rendering:optimizeQuality; fill-rule:evenodd; clip-rule:evenodd" xmlns:xlink="http://www.w3.org/1999/xlink">
<g><path style="opacity:1" fill="#fefefe" d="M -0.5,-0.5 C 299.5,-0.5 599.5,-0.5 899.5,-0.5C 899.5,199.5 899.5,399.5 899.5,599.5C 599.5,599.5 299.5,599.5 -0.5,599.5C -0.5,399.5 -0.5,199.5 -0.5,-0.5 Z"/></g>
<g><path style="opacity:1" fill="#35fa27" d="M 666.5,239.5 C 665.998,255.861 664.998,272.194 663.5,288.5C 663.667,291.833 663.833,295.167 664,298.5C 664.383,297.944 664.883,297.611 665.5,297.5C 668.908,296.828 671.575,297.828 673.5,300.5C 673.291,301.086 672.957,301.586 672.5,302C 669.048,302.885 665.714,303.718 662.5,304.5C 661.91,315.514 661.077,326.514 660,337.5C 659.653,339.18 658.653,340.18 657,340.5C 655.038,339.239 653.538,337.572 652.5,335.5C 652.5,334.5 652.5,333.5 652.5,332.5C 653.222,332.082 653.722,331.416 654,330.5C 655.023,322.177 655.856,313.843 656.5,305.5C 645.851,306.432 635.184,307.098 624.5,307.5C 623.874,320.157 623.374,332.823 623,345.5C 620.888,347.922 618.888,347.922 617,345.5C 616.501,341.848 616.335,338.182 616.5,334.5C 617.869,326.37 618.536,318.037 618.5,309.5C 612.833,309.5 607.167,309.5 601.5,309.5C 601.5,308.833 601.167,308.5 600.5,308.5C 600.261,306.533 600.594,304.699 601.5,303C 606.823,302.501 612.156,302.334 617.5,302.5C 619.48,290.211 620.147,277.544 619.5,264.5C 618.66,260.461 619.993,257.461 623.5,255.5C 624.478,255.977 625.311,256.643 626,257.5C 626.497,259.81 626.663,262.143 626.5,264.5C 625.659,277.155 624.992,289.822 624.5,302.5C 625.5,302.5 626.5,302.5 627.5,302.5C 636.872,301.783 646.206,300.783 655.5,299.5C 656.794,297.952 657.461,295.952 657.5,293.5C 658.791,277.848 659.791,262.181 660.5,246.5C 661.21,244.254 661.71,241.92 662,239.5C 663.616,238.199 665.116,238.199 666.5,239.5 Z"/></g>
<g><path style="opacity:1" fill="#2afb1d" d="M 116.5,262.5 C 117.008,283.831 117.508,305.165 118,326.5C 119.009,324.975 119.509,323.308 119.5,321.5C 124.363,310.772 129.53,300.105 135,289.5C 137.412,285.084 140.578,281.251 144.5,278C 148.78,275.523 152.28,276.356 155,280.5C 157.321,285.936 158.821,291.603 159.5,297.5C 159.823,311.079 159.49,324.579 158.5,338C 156.888,338.72 155.388,338.554 154,337.5C 154.222,322.505 154.222,307.505 154,292.5C 151.635,280.311 146.968,279.311 140,289.5C 131.844,305.478 124.51,321.812 118,338.5C 116.644,339.38 115.144,339.714 113.5,339.5C 113.309,313.283 111.976,287.283 109.5,261.5C 109.5,259.5 109.5,257.5 109.5,255.5C 111.035,254.212 112.701,254.212 114.5,255.5C 115.067,257.982 115.734,260.316 116.5,262.5 Z"/></g>
<g><path style="opacity:1" fill="#226b18" d="M 504.5,261.5 C 501.487,261.893 498.82,261.226 496.5,259.5C 496.159,254.31 498.326,253.31 503,256.5C 503.635,257.966 504.469,259.3 505.5,260.5C 505.376,261.107 505.043,261.44 504.5,261.5 Z"/></g>
<g><path style="opacity:1" fill="#c4cac4" d="M 660.5,246.5 C 659.791,262.181 658.791,277.848 657.5,293.5C 657.461,295.952 656.794,297.952 655.5,299.5C 656.477,283.158 657.643,266.824 659,250.5C 659.21,248.942 659.71,247.609 660.5,246.5 Z"/></g>
<g><path style="opacity:1" fill="#2dfc1f" d="M 101.5,262.5 C 101.634,264.292 101.301,265.958 100.5,267.5C 90.2318,265.962 80.0651,266.296 70,268.5C 70.6201,289.459 70.6201,310.459 70,331.5C 64.5045,334.865 62.3378,333.198 63.5,326.5C 64.5775,309.511 64.7442,292.511 64,275.5C 63.8078,273.423 63.3078,271.423 62.5,269.5C 50.4741,270.98 38.4741,272.647 26.5,274.5C 24.4776,272.581 24.1443,270.414 25.5,268C 37.8801,267.27 50.2134,266.103 62.5,264.5C 62.3379,262.473 62.5045,260.473 63,258.5C 66.3969,257.461 68.2302,258.794 68.5,262.5C 76.1517,261.725 83.8184,261.058 91.5,260.5C 94.5,260.667 97.5,260.833 100.5,261C 101.056,261.383 101.389,261.883 101.5,262.5 Z"/></g>
<g><path style="opacity:1" fill="#14660b" d="M 313.5,261.5 C 313.567,262.959 313.234,264.292 312.5,265.5C 309.063,268.701 306.896,272.701 306,277.5C 301.359,293.731 297.192,310.064 293.5,326.5C 292.609,329.778 291.776,333.111 291,336.5C 289.155,338.35 287.155,338.683 285,337.5C 275.86,315.226 265.693,293.559 254.5,272.5C 255.191,270.978 256.358,269.978 258,269.5C 260.321,270.487 261.987,272.154 263,274.5C 271.447,293.058 279.613,311.725 287.5,330.5C 292.377,309.657 297.877,288.99 304,268.5C 305.455,265.088 307.288,261.921 309.5,259C 311.412,258.721 312.746,259.554 313.5,261.5 Z"/></g>
<g><path style="opacity:1" fill="#b1b2b1" d="M 496.5,259.5 C 498.82,261.226 501.487,261.893 504.5,261.5C 509.695,269.785 507.362,272.952 497.5,271C 495.552,269.561 494.219,267.728 493.5,265.5C 494.519,263.489 495.519,261.489 496.5,259.5 Z"/></g>
<g><path style="opacity:1" fill="#b3beb1" d="M 666.5,239.5 C 667.496,243.452 668.496,247.452 669.5,251.5C 667.615,266.791 666.281,282.124 665.5,297.5C 664.883,297.611 664.383,297.944 664,298.5C 663.833,295.167 663.667,291.833 663.5,288.5C 664.998,272.194 665.998,255.861 666.5,239.5 Z"/></g>
<g><path style="opacity:1" fill="#999f98" d="M 312.5,265.5 C 313.435,268.113 313.602,270.779 313,273.5C 310.957,275.208 309.29,277.208 308,279.5C 303.529,294.413 299.362,309.413 295.5,324.5C 295.253,325.713 294.586,326.38 293.5,326.5C 297.192,310.064 301.359,293.731 306,277.5C 306.896,272.701 309.063,268.701 312.5,265.5 Z"/></g>
<g><path style="opacity:1" fill="#e4e4e4" d="M 109.5,255.5 C 109.5,257.5 109.5,259.5 109.5,261.5C 108.919,264.783 108.586,268.116 108.5,271.5C 110.536,296.801 112.203,322.134 113.5,347.5C 115.198,348.681 116.865,348.681 118.5,347.5C 119.961,344.618 121.127,341.618 122,338.5C 122.708,337.619 123.542,336.953 124.5,336.5C 124.51,341.689 122.843,346.189 119.5,350C 115.82,351.027 112.653,350.194 110,347.5C 110.098,322.748 108.765,298.081 106,273.5C 105.502,275.544 104.335,276.878 102.5,277.5C 104.321,273.534 103.654,270.201 100.5,267.5C 101.301,265.958 101.634,264.292 101.5,262.5C 103.89,269.816 105.39,269.816 106,262.5C 107.831,260.418 108.998,258.085 109.5,255.5 Z"/></g>
<g><path style="opacity:1" fill="#30fb23" d="M 781.5,331.5 C 777.011,332.551 774.511,330.551 774,325.5C 771.963,313.605 770.963,301.605 771,289.5C 765.612,301.949 758.945,313.615 751,324.5C 748.119,328.683 744.286,330.85 739.5,331C 738.667,330.167 737.833,329.333 737,328.5C 735.689,320.895 735.189,313.228 735.5,305.5C 736.425,295.288 739.425,285.788 744.5,277C 745.793,276.51 747.127,276.343 748.5,276.5C 748.122,278.921 747.455,281.254 746.5,283.5C 740.836,295.45 739.002,308.116 741,321.5C 741.278,322.416 741.778,323.082 742.5,323.5C 742.897,324.525 743.563,324.692 744.5,324C 749.083,320.088 752.917,315.588 756,310.5C 762.632,299.242 768.132,287.575 772.5,275.5C 773.748,276.04 774.915,276.707 776,277.5C 776.522,291.174 777.189,304.84 778,318.5C 779.362,322.058 780.862,325.558 782.5,329C 782.257,329.902 781.923,330.735 781.5,331.5 Z"/></g>
<g><path style="opacity:1" fill="#32fd24" d="M 820.5,281.5 C 812.432,280.129 805.099,281.962 798.5,287C 794.633,290.702 794.633,294.202 798.5,297.5C 808.498,300.339 818.498,303.506 828.5,307C 831.87,309.697 833.204,313.197 832.5,317.5C 827.46,327.001 819.46,332.501 808.5,334C 804.446,334.694 800.446,334.527 796.5,333.5C 795.744,329.496 797.41,326.496 801.5,324.5C 802.262,325.628 802.929,326.795 803.5,328C 809.928,328.75 815.928,327.417 821.5,324C 823.063,323.241 824.063,322.074 824.5,320.5C 828.467,317.124 828.467,313.624 824.5,310C 816.01,307.06 807.343,304.726 798.5,303C 794.686,301.778 791.686,299.611 789.5,296.5C 789.249,292.669 790.416,289.336 793,286.5C 800.664,278.949 809.83,275.116 820.5,275C 821.768,277.163 821.768,279.33 820.5,281.5 Z"/></g>
<g><path style="opacity:1" fill="#31fc24" d="M 880.5,284.5 C 878.4,287.104 876.067,289.604 873.5,292C 865.62,295.959 857.453,299.126 849,301.5C 848.333,306.5 848.333,311.5 849,316.5C 849.232,317.737 849.732,318.737 850.5,319.5C 851.673,321.504 853.34,323.004 855.5,324C 864.576,326.047 871.743,323.214 877,315.5C 879.667,310.833 882.333,306.167 885,301.5C 885.494,303.134 885.66,304.801 885.5,306.5C 882.243,317.595 875.243,325.428 864.5,330C 849.843,332.508 842.176,326.342 841.5,311.5C 842.667,297.662 848.667,286.496 859.5,278C 866.805,272.972 873.638,273.472 880,279.5C 880.494,281.134 880.66,282.801 880.5,284.5 Z"/></g>
<g><path style="opacity:1" fill="#0e6506" d="M 500.5,276.5 C 503.285,275.916 504.952,276.916 505.5,279.5C 504.997,297.594 505.997,315.594 508.5,333.5C 506.549,333.773 505.049,333.107 504,331.5C 502.541,318.376 501.375,305.376 500.5,292.5C 500.5,287.167 500.5,281.833 500.5,276.5 Z"/></g>
<g><path style="opacity:1" fill="#17670e" d="M 560.5,280.5 C 560.175,288.345 556.175,293.511 548.5,296C 542.381,298.373 536.214,300.539 530,302.5C 529.333,307.833 529.333,313.167 530,318.5C 530.608,320.066 531.442,321.4 532.5,322.5C 542.496,327.933 550.996,325.933 558,316.5C 561.172,312.159 563.839,307.492 566,302.5C 566.494,304.134 566.66,305.801 566.5,307.5C 563.681,315.504 559.015,322.338 552.5,328C 528.981,335.659 519.647,327.159 524.5,302.5C 527.702,290.805 534.702,282.305 545.5,277C 549.167,276.333 552.833,276.333 556.5,277C 558.324,277.66 559.657,278.827 560.5,280.5 Z"/></g>
<g><path style="opacity:1" fill="#17670e" d="M 359.5,281.5 C 359.175,289.345 355.175,294.511 347.5,297C 341.381,299.373 335.214,301.539 329,303.5C 328.333,308.833 328.333,314.167 329,319.5C 329.608,321.066 330.442,322.4 331.5,323.5C 341.496,328.933 349.996,326.933 357,317.5C 360.172,313.159 362.839,308.492 365,303.5C 365.494,305.134 365.66,306.801 365.5,308.5C 362.681,316.504 358.015,323.338 351.5,329C 327.981,336.659 318.647,328.159 323.5,303.5C 326.702,291.805 333.702,283.305 344.5,278C 348.167,277.333 351.833,277.333 355.5,278C 357.324,278.66 358.657,279.827 359.5,281.5 Z"/></g>
<g><path style="opacity:1" fill="#17670e" d="M 408.5,284.5 C 406.9,285.512 405.566,285.012 404.5,283C 400.671,282.242 397.338,283.242 394.5,286C 387.423,293.316 382.257,301.816 379,311.5C 378.333,315.5 378.333,319.5 379,323.5C 379.383,324.056 379.883,324.389 380.5,324.5C 383.226,324.736 385.559,323.903 387.5,322C 396.016,314.663 402.35,305.829 406.5,295.5C 408.072,292.682 409.406,289.682 410.5,286.5C 410.368,282.237 412.368,280.237 416.5,280.5C 418.781,295.239 421.448,309.905 424.5,324.5C 425.975,342.38 419.308,356.213 404.5,366C 400.769,368.099 396.769,369.266 392.5,369.5C 390.439,368.249 390.106,366.582 391.5,364.5C 400.475,361.688 407.975,356.688 414,349.5C 415.122,347.593 415.955,345.593 416.5,343.5C 418.417,339.15 419.417,334.483 419.5,329.5C 418.195,316.642 415.862,303.976 412.5,291.5C 406.999,304.49 399.333,315.99 389.5,326C 385.753,329.381 381.419,330.714 376.5,330C 374.372,328.208 373.039,326.042 372.5,323.5C 372.423,319.038 373.09,314.705 374.5,310.5C 378.373,296.898 386.04,286.065 397.5,278C 400.5,277.333 403.5,277.333 406.5,278C 408.016,279.897 408.683,282.064 408.5,284.5 Z"/></g>
<g><path style="opacity:1" fill="#17670e" d="M 470.5,284.5 C 468.9,285.512 467.566,285.012 466.5,283C 462.671,282.242 459.338,283.242 456.5,286C 449.423,293.316 444.257,301.816 441,311.5C 440.333,315.5 440.333,319.5 441,323.5C 441.383,324.056 441.883,324.389 442.5,324.5C 445.226,324.736 447.559,323.903 449.5,322C 458.016,314.663 464.35,305.829 468.5,295.5C 470.072,292.682 471.406,289.682 472.5,286.5C 472.368,282.237 474.368,280.237 478.5,280.5C 480.781,295.239 483.448,309.905 486.5,324.5C 487.975,342.38 481.308,356.213 466.5,366C 462.769,368.099 458.769,369.266 454.5,369.5C 452.439,368.249 452.106,366.582 453.5,364.5C 462.475,361.688 469.975,356.688 476,349.5C 477.122,347.593 477.955,345.593 478.5,343.5C 480.417,339.15 481.417,334.483 481.5,329.5C 480.195,316.642 477.862,303.976 474.5,291.5C 468.999,304.49 461.333,315.99 451.5,326C 447.753,329.381 443.419,330.714 438.5,330C 436.372,328.208 435.039,326.042 434.5,323.5C 434.423,319.038 435.09,314.705 436.5,310.5C 440.373,296.898 448.04,286.065 459.5,278C 462.5,277.333 465.5,277.333 468.5,278C 470.016,279.897 470.683,282.064 470.5,284.5 Z"/></g>
<g><path style="opacity:1" fill="#c8c8c8" d="M 619.5,264.5 C 620.147,277.544 619.48,290.211 617.5,302.5C 617.333,290.162 617.5,277.829 618,265.5C 618.383,264.944 618.883,264.611 619.5,264.5 Z"/></g>
<g><path style="opacity:1" fill="#31fc24" d="M 212.5,287.5 C 210.4,290.104 208.067,292.604 205.5,295C 197.62,298.959 189.453,302.126 181,304.5C 180.333,309.5 180.333,314.5 181,319.5C 181.232,320.737 181.732,321.737 182.5,322.5C 183.673,324.504 185.34,326.004 187.5,327C 196.576,329.047 203.743,326.214 209,318.5C 211.667,313.833 214.333,309.167 217,304.5C 217.494,306.134 217.66,307.801 217.5,309.5C 214.243,320.595 207.243,328.428 196.5,333C 181.843,335.508 174.176,329.342 173.5,314.5C 174.667,300.662 180.667,289.496 191.5,281C 198.805,275.972 205.638,276.472 212,282.5C 212.494,284.134 212.66,285.801 212.5,287.5 Z"/></g>
<g><path style="opacity:1" fill="#b0b1b0" d="M 313.5,261.5 C 316.125,264.978 316.958,268.978 316,273.5C 313.667,277.167 311.333,280.833 309,284.5C 308.121,287.818 307.287,291.152 306.5,294.5C 305.029,295.381 304.196,296.714 304,298.5C 300.252,314.186 296.585,329.852 293,345.5C 288.098,349.986 284.098,349.319 281,343.5C 273.096,327.865 266.096,311.865 260,295.5C 256.973,291.776 254.306,287.776 252,283.5C 253.363,279.77 254.197,276.104 254.5,272.5C 265.693,293.559 275.86,315.226 285,337.5C 287.155,338.683 289.155,338.35 291,336.5C 291.776,333.111 292.609,329.778 293.5,326.5C 294.586,326.38 295.253,325.713 295.5,324.5C 299.362,309.413 303.529,294.413 308,279.5C 309.29,277.208 310.957,275.208 313,273.5C 313.602,270.779 313.435,268.113 312.5,265.5C 313.234,264.292 313.567,262.959 313.5,261.5 Z"/></g>
<g><path style="opacity:1" fill="#2bfc1e" d="M 700.5,286.5 C 696.545,292.746 693.378,299.412 691,306.5C 690.185,311.352 690.352,316.019 691.5,320.5C 691.916,322.752 693.249,324.252 695.5,325C 705.341,326.578 712.674,323.078 717.5,314.5C 719.412,310.806 719.912,306.806 719,302.5C 714.634,297.799 709.967,293.466 705,289.5C 704.536,288.906 704.369,288.239 704.5,287.5C 707.177,285.568 710.177,285.068 713.5,286C 712.549,286.718 712.383,287.551 713,288.5C 717.333,291.5 721,295.167 724,299.5C 725.289,302.351 725.789,305.351 725.5,308.5C 721.167,324.34 710.834,331.84 694.5,331C 686.923,328.223 683.589,322.723 684.5,314.5C 684.888,301.23 689.554,289.73 698.5,280C 700.728,279.18 702.728,279.513 704.5,281C 703.335,282.992 702.002,284.825 700.5,286.5 Z"/></g>
<g><path style="opacity:1" fill="#b0b2b0" d="M 820.5,281.5 C 822.95,281.874 823.95,283.374 823.5,286C 823.646,288.034 822.98,289.701 821.5,291C 812.947,290.551 805.28,292.717 798.5,297.5C 794.633,294.202 794.633,290.702 798.5,287C 805.099,281.962 812.432,280.129 820.5,281.5 Z"/></g>
<g><path style="opacity:1" fill="#aeb3ad" d="M 865.5,279.5 C 868.32,279.248 870.986,279.748 873.5,281C 874.554,282.388 874.72,283.888 874,285.5C 867.252,291.802 859.418,295.135 850.5,295.5C 853.519,288.153 858.519,282.819 865.5,279.5 Z"/></g>
<g><path style="opacity:1" fill="#acb2ab" d="M 109.5,261.5 C 111.976,287.283 113.309,313.283 113.5,339.5C 115.144,339.714 116.644,339.38 118,338.5C 124.51,321.812 131.844,305.478 140,289.5C 146.968,279.311 151.635,280.311 154,292.5C 154.222,307.505 154.222,322.505 154,337.5C 155.388,338.554 156.888,338.72 158.5,338C 159.49,324.579 159.823,311.079 159.5,297.5C 160.29,298.609 160.79,299.942 161,301.5C 161.667,316.5 161.667,331.5 161,346.5C 158.333,349.167 155.667,349.167 153,346.5C 152.667,330.5 152.333,314.5 152,298.5C 151.42,294.574 149.253,293.074 145.5,294C 135.94,306.952 128.94,321.119 124.5,336.5C 123.542,336.953 122.708,337.619 122,338.5C 121.127,341.618 119.961,344.618 118.5,347.5C 116.865,348.681 115.198,348.681 113.5,347.5C 112.203,322.134 110.536,296.801 108.5,271.5C 108.586,268.116 108.919,264.783 109.5,261.5 Z"/></g>
<g><path style="opacity:1" fill="#abaeab" d="M 545.5,280.5 C 548.187,280.336 550.854,280.503 553.5,281C 555.329,282.113 556.163,283.613 556,285.5C 549.083,292.383 540.917,296.05 531.5,296.5C 534.443,289.563 539.11,284.23 545.5,280.5 Z"/></g>
<g><path style="opacity:1" fill="#b6bfb4" d="M 626.5,264.5 C 627.495,276.989 627.829,289.656 627.5,302.5C 626.5,302.5 625.5,302.5 624.5,302.5C 624.992,289.822 625.659,277.155 626.5,264.5 Z"/></g>
<g><path style="opacity:1" fill="#abaeab" d="M 344.5,281.5 C 347.187,281.336 349.854,281.503 352.5,282C 354.329,283.113 355.163,284.613 355,286.5C 348.083,293.383 339.917,297.05 330.5,297.5C 333.443,290.563 338.11,285.23 344.5,281.5 Z"/></g>
<g><path style="opacity:1" fill="#a9aaa8" d="M 408.5,284.5 C 408.5,285.833 409.167,286.5 410.5,286.5C 409.406,289.682 408.072,292.682 406.5,295.5C 405.666,294.252 404.333,293.585 402.5,293.5C 401.167,293.667 399.833,293.833 398.5,294C 391.065,300.595 385.398,308.428 381.5,317.5C 380.526,319.743 380.192,322.076 380.5,324.5C 379.883,324.389 379.383,324.056 379,323.5C 378.333,319.5 378.333,315.5 379,311.5C 382.257,301.816 387.423,293.316 394.5,286C 397.338,283.242 400.671,282.242 404.5,283C 405.566,285.012 406.9,285.512 408.5,284.5 Z"/></g>
<g><path style="opacity:1" fill="#a9aaa8" d="M 470.5,284.5 C 470.5,285.833 471.167,286.5 472.5,286.5C 471.406,289.682 470.072,292.682 468.5,295.5C 467.666,294.252 466.333,293.585 464.5,293.5C 463.167,293.667 461.833,293.833 460.5,294C 453.065,300.595 447.398,308.428 443.5,317.5C 442.526,319.743 442.192,322.076 442.5,324.5C 441.883,324.389 441.383,324.056 441,323.5C 440.333,319.5 440.333,315.5 441,311.5C 444.257,301.816 449.423,293.316 456.5,286C 459.338,283.242 462.671,282.242 466.5,283C 467.566,285.012 468.9,285.512 470.5,284.5 Z"/></g>
<g><path style="opacity:1" fill="#aeb3ad" d="M 197.5,282.5 C 200.32,282.248 202.986,282.748 205.5,284C 206.554,285.388 206.72,286.888 206,288.5C 199.252,294.802 191.418,298.135 182.5,298.5C 185.519,291.153 190.519,285.819 197.5,282.5 Z"/></g>
<g><path style="opacity:1" fill="#b0b3b0" d="M 880.5,284.5 C 881.901,288.543 881.734,292.543 880,296.5C 872.599,304.212 863.432,308.712 852.5,310C 850.66,312.826 849.994,315.993 850.5,319.5C 849.732,318.737 849.232,317.737 849,316.5C 848.333,311.5 848.333,306.5 849,301.5C 857.453,299.126 865.62,295.959 873.5,292C 876.067,289.604 878.4,287.104 880.5,284.5 Z"/></g>
<g><path style="opacity:1" fill="#b0b1af" d="M 560.5,280.5 C 562.587,286.014 562.754,291.681 561,297.5C 553.435,303.723 544.935,308.223 535.5,311C 534.667,311.833 533.833,312.667 533,313.5C 532.502,316.482 532.335,319.482 532.5,322.5C 531.442,321.4 530.608,320.066 530,318.5C 529.333,313.167 529.333,307.833 530,302.5C 536.214,300.539 542.381,298.373 548.5,296C 556.175,293.511 560.175,288.345 560.5,280.5 Z"/></g>
<g><path style="opacity:1" fill="#b0b1af" d="M 359.5,281.5 C 361.587,287.014 361.754,292.681 360,298.5C 352.435,304.723 343.935,309.223 334.5,312C 333.667,312.833 332.833,313.667 332,314.5C 331.502,317.482 331.335,320.482 331.5,323.5C 330.442,322.4 329.608,321.066 329,319.5C 328.333,314.167 328.333,308.833 329,303.5C 335.214,301.539 341.381,299.373 347.5,297C 355.175,294.511 359.175,289.345 359.5,281.5 Z"/></g>
<g><path style="opacity:1" fill="#b0b3b0" d="M 212.5,287.5 C 213.901,291.543 213.734,295.543 212,299.5C 204.599,307.212 195.432,311.712 184.5,313C 182.66,315.826 181.994,318.993 182.5,322.5C 181.732,321.737 181.232,320.737 181,319.5C 180.333,314.5 180.333,309.5 181,304.5C 189.453,302.126 197.62,298.959 205.5,295C 208.067,292.604 210.4,290.104 212.5,287.5 Z"/></g>
<g><path style="opacity:1" fill="#a7aaa7" d="M 416.5,343.5 C 416.666,337.824 416.499,332.157 416,326.5C 414.76,321.536 413.427,316.536 412,311.5C 411.667,311.167 411.333,310.833 411,310.5C 410.051,312.093 408.885,313.426 407.5,314.5C 400.533,322.886 393.2,331.053 385.5,339C 382.167,339.667 378.833,339.667 375.5,339C 375,338.5 374.5,338 374,337.5C 372.691,332.934 372.191,328.267 372.5,323.5C 373.039,326.042 374.372,328.208 376.5,330C 381.419,330.714 385.753,329.381 389.5,326C 399.333,315.99 406.999,304.49 412.5,291.5C 415.862,303.976 418.195,316.642 419.5,329.5C 419.417,334.483 418.417,339.15 416.5,343.5 Z"/></g>
<g><path style="opacity:1" fill="#a7aaa7" d="M 478.5,343.5 C 478.666,337.824 478.499,332.157 478,326.5C 476.76,321.536 475.427,316.536 474,311.5C 473.667,311.167 473.333,310.833 473,310.5C 472.051,312.093 470.885,313.426 469.5,314.5C 462.533,322.886 455.2,331.053 447.5,339C 444.167,339.667 440.833,339.667 437.5,339C 437,338.5 436.5,338 436,337.5C 434.691,332.934 434.191,328.267 434.5,323.5C 435.039,326.042 436.372,328.208 438.5,330C 443.419,330.714 447.753,329.381 451.5,326C 461.333,315.99 468.999,304.49 474.5,291.5C 477.862,303.976 480.195,316.642 481.5,329.5C 481.417,334.483 480.417,339.15 478.5,343.5 Z"/></g>
<g><path style="opacity:1" fill="#b0b2b0" d="M 781.5,331.5 C 783.385,333.795 783.885,336.462 783,339.5C 780.333,342.167 777.667,342.167 775,339.5C 770.41,329.705 768.243,319.372 768.5,308.5C 762.622,319.901 755.288,330.401 746.5,340C 738.329,342.536 733.829,339.37 733,330.5C 732.333,324.5 732.333,318.5 733,312.5C 733.698,309.996 734.531,307.663 735.5,305.5C 735.189,313.228 735.689,320.895 737,328.5C 737.833,329.333 738.667,330.167 739.5,331C 744.286,330.85 748.119,328.683 751,324.5C 758.945,313.615 765.612,301.949 771,289.5C 770.963,301.605 771.963,313.605 774,325.5C 774.511,330.551 777.011,332.551 781.5,331.5 Z"/></g>
<g><path style="opacity:1" fill="#f6f7f6" d="M 406.5,295.5 C 402.35,305.829 396.016,314.663 387.5,322C 385.559,323.903 383.226,324.736 380.5,324.5C 380.192,322.076 380.526,319.743 381.5,317.5C 385.398,308.428 391.065,300.595 398.5,294C 399.833,293.833 401.167,293.667 402.5,293.5C 404.333,293.585 405.666,294.252 406.5,295.5 Z"/></g>
<g><path style="opacity:1" fill="#f6f7f6" d="M 468.5,295.5 C 464.35,305.829 458.016,314.663 449.5,322C 447.559,323.903 445.226,324.736 442.5,324.5C 442.192,322.076 442.526,319.743 443.5,317.5C 447.398,308.428 453.065,300.595 460.5,294C 461.833,293.833 463.167,293.667 464.5,293.5C 466.333,293.585 467.666,294.252 468.5,295.5 Z"/></g>
<g><path style="opacity:1" fill="#abadaa" d="M 704.5,287.5 C 704.369,288.239 704.536,288.906 705,289.5C 709.967,293.466 714.634,297.799 719,302.5C 719.912,306.806 719.412,310.806 717.5,314.5C 714.304,306.966 708.971,301.299 701.5,297.5C 699.243,301.012 696.743,304.346 694,307.5C 692.431,311.703 691.598,316.036 691.5,320.5C 690.352,316.019 690.185,311.352 691,306.5C 693.378,299.412 696.545,292.746 700.5,286.5C 701.583,286.461 702.583,286.127 703.5,285.5C 704.298,285.957 704.631,286.624 704.5,287.5 Z"/></g>
<g><path style="opacity:1" fill="#b8c0b7" d="M 116.5,262.5 C 117.29,263.609 117.79,264.942 118,266.5C 119.175,284.815 119.675,303.148 119.5,321.5C 119.509,323.308 119.009,324.975 118,326.5C 117.508,305.165 117.008,283.831 116.5,262.5 Z"/></g>
<g><path style="opacity:1" fill="#b0b3b0" d="M 100.5,267.5 C 103.654,270.201 104.321,273.534 102.5,277.5C 100.167,277.5 97.8333,277.5 95.5,277.5C 87.7164,276.205 79.883,276.538 72,278.5C 72.5194,298.819 72.5194,319.152 72,339.5C 70.0348,343.444 67.0348,344.444 63,342.5C 62.8331,322.158 62.3331,301.825 61.5,281.5C 54.862,280.659 48.1953,280.826 41.5,282C 39.2774,282.566 37.2774,283.4 35.5,284.5C 30.5534,285.372 26.3868,284.039 23,280.5C 21.608,276.78 22.7747,274.78 26.5,274.5C 38.4741,272.647 50.4741,270.98 62.5,269.5C 63.3078,271.423 63.8078,273.423 64,275.5C 64.7442,292.511 64.5775,309.511 63.5,326.5C 62.3378,333.198 64.5045,334.865 70,331.5C 70.6201,310.459 70.6201,289.459 70,268.5C 80.0651,266.296 90.2318,265.962 100.5,267.5 Z"/></g>
<g><path style="opacity:1" fill="#b5b8b4" d="M 746.5,283.5 C 747.833,283.5 749.167,283.5 750.5,283.5C 750.453,286.568 749.953,289.568 749,292.5C 746.766,295.525 745.099,298.859 744,302.5C 742.77,309.445 742.27,316.445 742.5,323.5C 741.778,323.082 741.278,322.416 741,321.5C 739.002,308.116 740.836,295.45 746.5,283.5 Z"/></g>
<g><path style="opacity:1" fill="#b0b3b0" d="M 789.5,296.5 C 791.686,299.611 794.686,301.778 798.5,303C 807.343,304.726 816.01,307.06 824.5,310C 828.467,313.624 828.467,317.124 824.5,320.5C 816.897,317.249 808.897,315.083 800.5,314C 790.907,312.427 786.741,306.927 788,297.5C 788.383,296.944 788.883,296.611 789.5,296.5 Z"/></g>
<g><path style="opacity:1" fill="#f7f8f7" d="M 717.5,314.5 C 712.674,323.078 705.341,326.578 695.5,325C 693.249,324.252 691.916,322.752 691.5,320.5C 691.598,316.036 692.431,311.703 694,307.5C 696.743,304.346 699.243,301.012 701.5,297.5C 708.971,301.299 714.304,306.966 717.5,314.5 Z"/></g>
<g><path style="opacity:1" fill="#adaeac" d="M 652.5,332.5 C 652.5,331.167 652.5,329.833 652.5,328.5C 653.485,324.366 653.818,320.032 653.5,315.5C 645.837,315.978 638.17,316.478 630.5,317C 628.899,317.273 627.399,317.773 626,318.5C 625.292,330.734 624.458,342.901 623.5,355C 620.621,355.957 618.121,355.457 616,353.5C 615.18,346.986 615.347,340.653 616.5,334.5C 616.335,338.182 616.501,341.848 617,345.5C 618.888,347.922 620.888,347.922 623,345.5C 623.374,332.823 623.874,320.157 624.5,307.5C 635.184,307.098 645.851,306.432 656.5,305.5C 655.856,313.843 655.023,322.177 654,330.5C 653.722,331.416 653.222,332.082 652.5,332.5 Z"/></g>
<g><path style="opacity:1" fill="#adafad" d="M 885.5,306.5 C 886.209,307.404 887.209,307.737 888.5,307.5C 886.416,319.486 880.75,329.653 871.5,338C 846.734,345.39 836.734,336.556 841.5,311.5C 842.176,326.342 849.843,332.508 864.5,330C 875.243,325.428 882.243,317.595 885.5,306.5 Z"/></g>
<g><path style="opacity:1" fill="#acaeac" d="M 524.5,302.5 C 519.647,327.159 528.981,335.659 552.5,328C 559.015,322.338 563.681,315.504 566.5,307.5C 568.137,309.923 568.637,312.59 568,315.5C 565.235,324.849 560.068,332.683 552.5,339C 527.792,346.298 517.292,337.131 521,311.5C 521.339,308.964 521.839,306.464 522.5,304C 522.836,302.97 523.503,302.47 524.5,302.5 Z"/></g>
<g><path style="opacity:1" fill="#aaaeaa" d="M 601.5,309.5 C 607.167,309.5 612.833,309.5 618.5,309.5C 618.536,318.037 617.869,326.37 616.5,334.5C 616.5,329.5 616.5,324.5 616.5,319.5C 611.821,319.666 607.155,319.499 602.5,319C 597.699,316.082 597.365,312.915 601.5,309.5 Z"/></g>
<g><path style="opacity:1" fill="#acaeac" d="M 323.5,303.5 C 318.647,328.159 327.981,336.659 351.5,329C 358.015,323.338 362.681,316.504 365.5,308.5C 367.137,310.923 367.637,313.59 367,316.5C 364.235,325.849 359.068,333.683 351.5,340C 326.792,347.298 316.292,338.131 320,312.5C 320.339,309.964 320.839,307.464 321.5,305C 321.836,303.97 322.503,303.47 323.5,303.5 Z"/></g>
<g><path style="opacity:1" fill="#adafad" d="M 217.5,309.5 C 218.209,310.404 219.209,310.737 220.5,310.5C 218.416,322.486 212.75,332.653 203.5,341C 178.734,348.39 168.734,339.556 173.5,314.5C 174.176,329.342 181.843,335.508 196.5,333C 207.243,328.428 214.243,320.595 217.5,309.5 Z"/></g>
<g><path style="opacity:1" fill="#abaeab" d="M 725.5,308.5 C 728.028,325.833 720.695,336.666 703.5,341C 700.118,341.824 696.784,341.657 693.5,340.5C 682.783,334.65 679.783,325.983 684.5,314.5C 683.589,322.723 686.923,328.223 694.5,331C 710.834,331.84 721.167,324.34 725.5,308.5 Z"/></g>
<g><path style="opacity:1" fill="#afb0ae" d="M 832.5,317.5 C 834.617,328.758 830.284,336.591 819.5,341C 812.212,344.291 804.545,345.291 796.5,344C 792.565,340.504 792.565,337.004 796.5,333.5C 800.446,334.527 804.446,334.694 808.5,334C 819.46,332.501 827.46,327.001 832.5,317.5 Z"/></g>
<g><path style="opacity:1" fill="#b8bcb8" d="M 500.5,276.5 C 500.5,281.833 500.5,287.167 500.5,292.5C 500.179,305.205 500.679,317.872 502,330.5C 502.771,333.859 503.605,337.192 504.5,340.5C 505.689,341.429 507.022,341.762 508.5,341.5C 508.5,338.833 508.5,336.167 508.5,333.5C 505.997,315.594 504.997,297.594 505.5,279.5C 506.181,281.158 507.015,282.825 508,284.5C 508.124,302.709 508.957,320.876 510.5,339C 510.095,342.739 508.095,344.073 504.5,343C 502.951,341.786 501.785,340.286 501,338.5C 498.073,317.688 497.907,297.021 500.5,276.5 Z"/></g>
<g><path style="opacity:1" fill="#989f97" d="M 500.5,292.5 C 501.375,305.376 502.541,318.376 504,331.5C 505.049,333.107 506.549,333.773 508.5,333.5C 508.5,336.167 508.5,338.833 508.5,341.5C 507.022,341.762 505.689,341.429 504.5,340.5C 503.605,337.192 502.771,333.859 502,330.5C 500.679,317.872 500.179,305.205 500.5,292.5 Z"/></g>
<g><path style="opacity:1" fill="#e1e1e1" d="M 600.5,308.5 C 601.167,308.5 601.5,308.833 601.5,309.5C 597.365,312.915 597.699,316.082 602.5,319C 607.155,319.499 611.821,319.666 616.5,319.5C 616.5,324.5 616.5,329.5 616.5,334.5C 615.347,340.653 615.18,346.986 616,353.5C 618.121,355.457 620.621,355.957 623.5,355C 624.458,342.901 625.292,330.734 626,318.5C 627.399,317.773 628.899,317.273 630.5,317C 638.17,316.478 645.837,315.978 653.5,315.5C 653.818,320.032 653.485,324.366 652.5,328.5C 652.5,324.833 652.5,321.167 652.5,317.5C 644.225,317.956 636.059,318.956 628,320.5C 627.665,332.206 626.831,343.873 625.5,355.5C 621.055,359.791 617.222,359.458 614,354.5C 613.43,343.091 613.93,331.757 615.5,320.5C 610.821,320.666 606.155,320.499 601.5,320C 597.708,317.947 596.542,314.781 598,310.5C 598.708,309.619 599.542,308.953 600.5,308.5 Z"/></g>
<g><path style="opacity:1" fill="#d6d6d6" d="M 374.5,310.5 C 373.09,314.705 372.423,319.038 372.5,323.5C 372.191,328.267 372.691,332.934 374,337.5C 374.5,338 375,338.5 375.5,339C 378.833,339.667 382.167,339.667 385.5,339C 393.2,331.053 400.533,322.886 407.5,314.5C 402.894,325.516 395.56,334.349 385.5,341C 378.514,343.06 373.681,340.893 371,334.5C 370.333,329.167 370.333,323.833 371,318.5C 371.493,315.325 372.66,312.659 374.5,310.5 Z"/></g>
<g><path style="opacity:1" fill="#d6d6d6" d="M 436.5,310.5 C 435.09,314.705 434.423,319.038 434.5,323.5C 434.191,328.267 434.691,332.934 436,337.5C 436.5,338 437,338.5 437.5,339C 440.833,339.667 444.167,339.667 447.5,339C 455.2,331.053 462.533,322.886 469.5,314.5C 464.894,325.516 457.56,334.349 447.5,341C 440.514,343.06 435.681,340.893 433,334.5C 432.333,329.167 432.333,323.833 433,318.5C 433.493,315.325 434.66,312.659 436.5,310.5 Z"/></g>
<g><path style="opacity:1" fill="#e4e4e4" d="M 95.5,277.5 C 88.1507,277.549 80.8174,277.882 73.5,278.5C 73.6666,299.169 73.5,319.836 73,340.5C 72.5348,341.931 71.7014,343.097 70.5,344C 67.0074,345.004 63.8408,344.504 61,342.5C 60.5,322.503 60.3334,302.503 60.5,282.5C 52.1829,283.355 43.8496,284.021 35.5,284.5C 37.2774,283.4 39.2774,282.566 41.5,282C 48.1953,280.826 54.862,280.659 61.5,281.5C 62.3331,301.825 62.8331,322.158 63,342.5C 67.0348,344.444 70.0348,343.444 72,339.5C 72.5194,319.152 72.5194,298.819 72,278.5C 79.883,276.538 87.7164,276.205 95.5,277.5 Z"/></g>
<g><path style="opacity:1" fill="#adafad" d="M 662.5,304.5 C 665.85,304.335 669.183,304.502 672.5,305C 674.325,306.466 674.825,308.299 674,310.5C 670.819,312.529 667.485,314.196 664,315.5C 663.331,326.56 662.331,337.56 661,348.5C 658.034,351.265 655.367,350.932 653,347.5C 651.176,343.561 651.009,339.561 652.5,335.5C 653.538,337.572 655.038,339.239 657,340.5C 658.653,340.18 659.653,339.18 660,337.5C 661.077,326.514 661.91,315.514 662.5,304.5 Z"/></g>
<g><path style="opacity:1" fill="#a8aaa8" d="M 424.5,324.5 C 430.164,346.001 423.831,363.167 405.5,376C 400.463,378.412 395.296,378.912 390,377.5C 389.018,374.225 389.851,371.559 392.5,369.5C 396.769,369.266 400.769,368.099 404.5,366C 419.308,356.213 425.975,342.38 424.5,324.5 Z"/></g>
<g><path style="opacity:1" fill="#a8aaa8" d="M 486.5,324.5 C 492.164,346.001 485.831,363.167 467.5,376C 462.463,378.412 457.296,378.912 452,377.5C 451.018,374.225 451.851,371.559 454.5,369.5C 458.769,369.266 462.769,368.099 466.5,366C 481.308,356.213 487.975,342.38 486.5,324.5 Z"/></g>
</svg>
